# xmcd
#
# Track frame offsets:
#	150
#	15269
#	26793
#	44452
#	54607
#	69618
#	85048
#	97923
#	112860
#	122088
#
# Disc length: 1852 seconds
#
# Revision: 0
# Processed by: cddbd v1.5.1PL0 Copyright (c) Steve Scherf et al.
# Submitted via: dBpowerAMP V4.0
#
DISCID=75073a0a
DTITLE=Jim Roland - Hymns to Glorify Him
DYEAR=2002
DGENRE=Christian
TTITLE0=Amazing Grace
TTITLE1=I Feel Like Traveling On
TTITLE2=Blessed Redeemer
TTITLE3=Leaning on the Everlasting Arms
TTITLE4=Family Bible
TTITLE5=I Love to Tell the Story
TTITLE6=Blessed Assurance
TTITLE7=The Old Rugged Cross
TTITLE8=City of Gold
TTITLE9=Pass Me Not
EXTD=
EXTT0=
EXTT1=
EXTT2=
EXTT3=
EXTT4=
EXTT5=
EXTT6=
EXTT7=
EXTT8=
EXTT9=
PLAYORDER=
